<mxfile host="Electron" agent="Mozilla/5.0 (Windows NT 10.0; Win64; x64) AppleWebKit/537.36 (KHTML, like Gecko) draw.io/27.0.9 Chrome/134.0.6998.205 Electron/35.4.0 Safari/537.36" version="27.0.9">
  <diagram name="Страница — 1" id="Bzx3fhvC2deunw6_5ojF">
    <mxGraphModel dx="1090" dy="593" grid="1" gridSize="10" guides="1" tooltips="1" connect="1" arrows="1" fold="1" page="1" pageScale="1" pageWidth="827" pageHeight="1169" math="0" shadow="0">
      <root>
        <mxCell id="0" />
        <mxCell id="1" parent="0" />
        <mxCell id="0Go2oX4L-RsN_9AeB5PB-2" value="" style="rounded=0;whiteSpace=wrap;html=1;" vertex="1" parent="1">
          <mxGeometry x="40" y="40" width="760" height="440" as="geometry" />
        </mxCell>
        <mxCell id="0Go2oX4L-RsN_9AeB5PB-3" value="Кнопка &quot;Добавить&quot;" style="rounded=0;whiteSpace=wrap;html=1;" vertex="1" parent="1">
          <mxGeometry x="40" y="40" width="380" height="60" as="geometry" />
        </mxCell>
        <mxCell id="0Go2oX4L-RsN_9AeB5PB-4" value="Кнопка &quot;Удалить&quot;" style="rounded=0;whiteSpace=wrap;html=1;" vertex="1" parent="1">
          <mxGeometry x="420" y="40" width="380" height="60" as="geometry" />
        </mxCell>
        <mxCell id="0Go2oX4L-RsN_9AeB5PB-5" value="Кнопка &quot;Назад&quot;" style="rounded=0;whiteSpace=wrap;html=1;" vertex="1" parent="1">
          <mxGeometry x="40" y="420" width="760" height="60" as="geometry" />
        </mxCell>
        <mxCell id="0Go2oX4L-RsN_9AeB5PB-6" value="Просмотр данных" style="rounded=0;whiteSpace=wrap;html=1;" vertex="1" parent="1">
          <mxGeometry x="40" y="100" width="760" height="320" as="geometry" />
        </mxCell>
      </root>
    </mxGraphModel>
  </diagram>
</mxfile>
